<?xml version="1.0" standalone="no"?>
<!DOCTYPE svg PUBLIC "-//W3C//DTD SVG 20010904//EN"
 "http://www.w3.org/TR/2001/REC-SVG-20010904/DTD/svg10.dtd">
<svg version="1.0" xmlns="http://www.w3.org/2000/svg"
 width="76.000000pt" height="76.000000pt" viewBox="0 0 76.000000 76.000000"
 preserveAspectRatio="xMidYMid meet">
<metadata>
Created by potrace 1.13, written by Peter Selinger 2001-2015
</metadata>
<g transform="translate(0.000000,76.000000) scale(0.100000,-0.100000)"
fill="#000000" stroke="none">
<path d="M0 380 l0 -380 380 0 380 0 0 380 0 380 -380 0 -380 0 0 -380z m354
163 c49 -70 89 -132 89 -138 0 -6 -40 -79 -89 -163 l-89 -152 -83 0 c-46 0
-81 3 -79 8 2 4 43 73 91 154 47 80 86 149 86 152 0 3 -41 62 -90 131 -49 69
-90 127 -90 130 0 3 37 5 83 5 l82 -1 89 -126z m283 50 c-30 -42 -59 -79 -64
-80 -9 -3 -83 88 -83 102 0 3 7 17 16 30 15 23 22 25 101 25 l84 0 -54 -77z
m-4 -408 l56 -95 -84 0 c-84 0 -85 0 -100 31 -16 29 -15 32 20 95 20 35 40 64
44 64 4 0 33 -43 64 -95z"/>
</g>
</svg>
